<svg version="1.0" xmlns="http://www.w3.org/2000/svg" width="346.667" height="346.667" viewBox="0 0 260 260"><g><path d="M80.9.4c-.2.2-4.1.6-8.6 1-24.7 1.9-36.9 7-50.9 21.2C8.3 35.8 3.7 47.1 1.3 72.5c-1 10.3-1 103.2-.1 115 2.1 25.3 8.3 39.5 23 52.9 12.9 11.8 25.2 16.4 48.8 18.3 12.1 1 102.7 1 114 .1 25.7-2.2 37.5-7.1 51.7-21.4 6.1-6.2 9-10.1 11.6-15.6 8.4-17.5 9.2-25.7 9.2-92.8 0-27.8-.4-53.8-.8-57.9-1.1-9.9-3.3-21.5-4.7-24.1-.6-1.1-.8-2-.5-2 .3 0-1.1-3.3-3.2-7.3-4.7-9.1-18.1-22.8-26.8-27.4-7.5-3.9-17.1-6.9-25.3-7.8-3.4-.4-7.4-.9-8.9-1.2C186.3.7 81.5-.1 80.9.4z"/></g></svg>